HIERARCHY
ROOT joint_Root
{
	OFFSET 0.0 0.0 0.0
	CHANNELS 6 Xposition Yposition Zposition Zrotation Xrotation Yrotation 
	JOINT Hips
	{
		OFFSET -17.1583 93.1646 452.98
		CHANNELS 6 Xposition Yposition Zposition Zrotation Xrotation Yrotation 
		JOINT Spine
		{
			OFFSET 15.7357 0.0 0.0
			CHANNELS 6 Xposition Yposition Zposition Zrotation Xrotation Yrotation 
			JOINT Chest
			{
				OFFSET 8.98455 -0.406207 0.0
				CHANNELS 6 Xposition Yposition Zposition Zrotation Xrotation Yrotation 
				JOINT Neck
				{
					OFFSET 16.3773 0.0 0.0
					CHANNELS 6 Xposition Yposition Zposition Zrotation Xrotation Yrotation 
					JOINT Head
					{
						OFFSET 6.45672 0.0 0.0
						CHANNELS 6 Xposition Yposition Zposition Zrotation Xrotation Yrotation 
						End Site
						{
							OFFSET 0.0 0.0 0.0
						}
					}
				}
				JOINT Shoulder_L
				{
					OFFSET 12.9942 -0.242716 4.98039
					CHANNELS 6 Xposition Yposition Zposition Zrotation Xrotation Yrotation 
					JOINT UpperArm_L
					{
						OFFSET 5.34809 0.0 0.0
						CHANNELS 6 Xposition Yposition Zposition Zrotation Xrotation Yrotation 
						JOINT LowerArm_L
						{
							OFFSET 24.3286 1.87007e-05 0.0
							CHANNELS 6 Xposition Yposition Zposition Zrotation Xrotation Yrotation 
							JOINT Hand_L
							{
								OFFSET 22.2916 0.0 0.0
								CHANNELS 6 Xposition Yposition Zposition Zrotation Xrotation Yrotation 
								End Site
								{
									OFFSET 0.0 0.0 0.0
								}
							}
						}
					}
				}
				JOINT Shoulder_R
				{
					OFFSET 12.9945 -0.242716 -4.98039
					CHANNELS 6 Xposition Yposition Zposition Zrotation Xrotation Yrotation 
					JOINT UpperArm_R
					{
						OFFSET -5.34813 0.0 0.0
						CHANNELS 6 Xposition Yposition Zposition Zrotation Xrotation Yrotation 
						JOINT LowerArm_R
						{
							OFFSET -24.3289 0.000322201 0.0
							CHANNELS 6 Xposition Yposition Zposition Zrotation Xrotation Yrotation 
							JOINT Hand_R
							{
								OFFSET -22.2915 -0.000108084 0.0
								CHANNELS 6 Xposition Yposition Zposition Zrotation Xrotation Yrotation 
								End Site
								{
									OFFSET 0.0 0.0 0.0
								}
							}
						}
					}
				}
			}
		}
		JOINT UpperLeg_L
		{
			OFFSET -2.19248 -6.46944 0.0
			CHANNELS 6 Xposition Yposition Zposition Zrotation Xrotation Yrotation 
			JOINT LowerLeg_L
			{
				OFFSET 39.0811 0.0 -1.23785e-05
				CHANNELS 6 Xposition Yposition Zposition Zrotation Xrotation Yrotation 
				JOINT Foot_L
				{
					OFFSET 40.9854 0.0 -1.26872e-05
					CHANNELS 6 Xposition Yposition Zposition Zrotation Xrotation Yrotation 
					JOINT Toes_L
					{
						OFFSET 11.7543 0.0 0.0
						CHANNELS 6 Xposition Yposition Zposition Zrotation Xrotation Yrotation 
						End Site
						{
							OFFSET 0.0 0.0 0.0
						}
					}
				}
			}
		}
		JOINT UpperLeg_R
		{
			OFFSET -2.19251 6.46944 0.0
			CHANNELS 6 Xposition Yposition Zposition Zrotation Xrotation Yrotation 
			JOINT LowerLeg_R
			{
				OFFSET -39.0811 -0.00228153 -0.0401928
				CHANNELS 6 Xposition Yposition Zposition Zrotation Xrotation Yrotation 
				JOINT Foot_R
				{
					OFFSET -40.9854 0.0 0.0
					CHANNELS 6 Xposition Yposition Zposition Zrotation Xrotation Yrotation 
					JOINT Toes_R
					{
						OFFSET -11.7543 0.0 0.0
						CHANNELS 6 Xposition Yposition Zposition Zrotation Xrotation Yrotation 
						End Site
						{
							OFFSET 0.0 0.0 0.0
						}
					}
				}
			}
		}
	}
}
MOTION
Frames:	4
Frame Time:	0.0333333
0.000000 0.000000 0.000000 0.000000 0.000000 -0.000000 -1.700350 91.921900 -6.995650 88.403700 0.793667 2.976500 15.735700 0.000005 -0.000001 88.965800 87.448500 -87.853700 8.984550 -0.406207 -0.000000 -2.661050 -0.193230 2.219710 16.377300 -0.000001 -0.000001 4.939770 1.516760 -0.731631 6.456720 -0.000001 -0.000000 8.291530 1.779850 0.965736 12.994200 -0.242716 4.980390 -92.551800 7.222650 -70.481900 5.348090 -0.000007 -0.000001 -69.708400 -12.925200 8.434410 24.328600 0.000019 0.000005 20.338800 31.634400 -35.250200 22.291600 -0.000001 0.000005 44.934700 4.477320 16.973400 12.994500 -0.242716 -4.980390 88.577800 4.005020 -70.431000 -5.348130 -0.000001 -0.000004 -71.633600 11.371800 -4.209470 -24.328900 0.000322 -0.000009 0.136762 0.228201 -31.046900 -22.291500 -0.000108 -0.000004 48.054300 5.451120 -4.679900 -2.192480 -6.469440 -0.000000 -175.888000 0.657914 -24.945900 39.081100 -0.000007 -0.000012 0.124292 -0.055749 65.839900 40.985400 -0.000006 -0.000013 -6.028200 4.123070 -47.781900 11.754300 -0.000000 0.000003 0.002452 0.073809 -13.583300 -2.192510 6.469440 -0.000001 -173.923000 -0.463059 175.521000 -39.081100 -0.002282 -0.040193 -0.004181 0.015719 25.484300 -40.985400 0.000008 0.000006 -1.487520 -0.545386 -72.447400 -11.754300 -0.000006 -0.000006 -0.008571 0.260295 -6.001060
0.000000 0.000000 0.000000 0.000000 0.000000 -0.000000 -1.320360 92.417100 -3.843820 89.718200 -0.487541 2.051270 15.735700 0.000005 -0.000001 101.375000 87.562400 -100.739000 8.984550 -0.406207 -0.000000 -2.991540 0.901469 1.295400 16.377300 -0.000001 -0.000001 4.993810 1.671060 -1.061900 6.456720 -0.000001 -0.000000 8.210580 1.457310 0.983390 12.994200 -0.242716 4.980390 -92.519400 6.999140 -70.146200 5.348090 -0.000007 -0.000001 -67.539700 -14.730500 9.998230 24.328600 0.000019 0.000005 19.842900 31.188000 -34.871200 22.291600 -0.000001 0.000005 44.861800 4.467510 17.134000 12.994500 -0.242716 -4.980390 88.586500 4.075950 -70.855200 -5.348130 -0.000001 -0.000004 -71.764200 11.517600 -5.334080 -24.328900 0.000322 -0.000009 0.572149 0.785950 -36.072800 -22.291500 -0.000108 -0.000004 48.134300 5.451780 -4.703600 -2.192480 -6.469440 -0.000000 -177.508000 1.460280 -27.784600 39.081100 -0.000007 -0.000012 0.082449 -0.050630 58.444500 40.985400 -0.000006 -0.000013 -4.803790 0.884653 -52.092600 11.754300 -0.000000 0.000003 0.002422 0.070239 -13.728000 -2.192510 6.469440 -0.000001 -175.756000 -0.306789 178.686000 -39.081100 -0.002282 -0.040193 -0.002067 0.013463 21.802100 -40.985400 0.000008 0.000006 -1.813780 1.299200 -72.157500 -11.754300 -0.000006 -0.000006 -0.008797 0.262084 -5.927990
0.000000 0.000000 0.000000 0.000000 0.000000 -0.000000 -1.051460 92.612000 -0.779386 90.219300 -1.767580 0.956449 15.735700 0.000005 -0.000001 112.839000 87.624600 -112.371000 8.984550 -0.406207 -0.000000 -3.395650 1.797490 0.989024 16.377300 -0.000001 -0.000001 4.837590 1.944270 -1.453010 6.456720 -0.000001 -0.000000 8.095740 1.362940 0.742296 12.994200 -0.242716 4.980390 -92.571100 7.021470 -69.829800 5.348090 -0.000007 -0.000001 -65.037800 -16.807100 11.515100 24.328600 0.000019 0.000005 19.625300 30.574900 -35.031200 22.291600 -0.000001 0.000005 44.814800 4.461420 17.233400 12.994500 -0.242716 -4.980390 88.593700 4.141750 -71.227200 -5.348130 -0.000001 -0.000004 -71.547300 11.848900 -6.386210 -24.328900 0.000322 -0.000009 1.027190 1.213150 -40.272600 -22.291500 -0.000108 -0.000004 48.167400 5.450950 -4.673900 -2.192480 -6.469440 -0.000000 -177.697000 2.432580 -29.091900 39.081100 -0.000007 -0.000012 0.057978 -0.053160 47.480600 40.985400 -0.000006 -0.000013 -4.185960 -1.380580 -54.098300 11.754300 -0.000000 0.000003 0.002478 0.078588 -13.389500 -2.192510 6.469440 -0.000001 -176.882000 0.738314 -178.844000 -39.081100 -0.002282 -0.040193 0.001769 0.004567 18.794800 -40.985400 0.000008 0.000006 -1.530000 3.619170 -71.728000 -11.754300 -0.000006 -0.000006 -0.007423 0.250923 -6.383830
0.000000 0.000000 0.000000 0.000000 0.000000 -0.000000 -0.857469 92.499300 2.416010 90.131800 -2.879640 0.073915 15.735700 0.000005 -0.000001 121.295000 87.599700 -120.798000 8.984550 -0.406207 -0.000000 -3.675930 2.442610 1.073260 16.377300 -0.000001 -0.000001 4.460470 2.240720 -1.813030 6.456720 -0.000001 -0.000000 7.923610 1.456320 0.530297 12.994200 -0.242716 4.980390 -92.645300 7.081360 -69.455000 5.348090 -0.000007 -0.000001 -62.523900 -18.814900 12.845200 24.328600 0.000019 0.000005 19.646900 30.088800 -35.454700 22.291600 -0.000001 0.000005 44.840500 4.449640 17.424800 12.994500 -0.242716 -4.980390 88.666500 3.998200 -71.537900 -5.348130 -0.000001 -0.000004 -71.456200 12.190300 -7.084750 -24.328900 0.000322 -0.000009 1.689760 1.780010 -43.533700 -22.291500 -0.000108 -0.000004 48.273500 5.449750 -4.630750 -2.192480 -6.469440 -0.000000 -176.923000 2.898730 -28.318800 39.081100 -0.000007 -0.000012 0.042422 -0.064234 33.441700 40.985400 -0.000006 -0.000013 -4.306390 -1.151420 -54.607900 11.754300 -0.000000 0.000003 0.002479 0.088786 -12.976100 -2.192510 6.469440 -0.000001 -177.542000 2.035440 -176.372000 -39.081100 -0.002282 -0.040193 0.004794 -0.004984 16.389400 -40.985400 0.000008 0.000006 -1.800130 6.184410 -71.543300 -11.754300 -0.000006 -0.000006 -0.005383 0.232788 -7.123650
